<svg xmlns="http://www.w3.org/2000/svg" viewBox="0 0 377.22 30"><defs><style>.cls-1{fill:#000000;}</style></defs><title>Braathens</title><g id="Layer_2" data-name="Layer 2"><g id="Layer_2-2" data-name="Layer 2"><path class="cls-1" d="M42,16c2,0,9-4,9-10s-5-5-5-5H4l9,6L0,29v1H34c13-6,8-12,8-12S40,16,42,16ZM25.5,23.5h-7l3-6h7C30.5,22.5,25.5,23.5,25.5,23.5Zm5-10h-7l3-6h7C35.5,12.5,30.5,13.5,30.5,13.5Z"/><path class="cls-1" d="M92.5,0h-31l-18,28v2h16l6-10s4-2,5,1l-4.07,9H81.5l4-8c1-2-1-5-1-5,9,0,11-12,11-12C96.5,1,92.5,0,92.5,0Zm-17,13h-7l3-6h7C80.5,12,75.5,13,75.5,13Z"/><path class="cls-1" d="M102.5,0l8,5V7l-26,23h12l4.5-4.5h13.5V30h13l1-5,6-25Zm14,20h-8l8-8.92h1.92Z"/><path class="cls-1" d="M142.5,0l8,5V7l-26,23h12l4.5-4.5h13.5V30h13l1-5,6-25Zm14,20h-8l8-8.92h1.92Z"/><polygon class="cls-1" points="129.91 28.44 128.46 28.44 128.15 30 129.91 28.44"/><polygon class="cls-1" points="175.54 30 189.5 30 203.61 7.48 212.91 7.48 216.94 0.96 181.61 0.96 178.57 7.18 189 7.41 175.54 30"/><path class="cls-1" d="M243.24,1H258.8L241.17,30H225.61l7-12.16-6.53,0L218.35,30H203.17L221.09,1h14.74C233.22,5,231.61,8.11,229,12.18l7,0"/><path class="cls-1" d="M276.06,7.93H292.2L296,1H264.65L246.57,30H278.2l4.3-6.89H266.39l3.15-5.18h16L288.65,13H273.31"/><polygon class="cls-1" points="285.09 30 302.43 0.96 316.5 0.96 318.87 16 320.57 16 329.98 0.96 339.61 0.96 321.83 30 307.31 30 305.02 14.96 302.87 14.96 294.2 30 285.09 30"/><path class="cls-1" d="M331.51,24.52a1,1,0,0,1,.9-.52h17.21a1.19,1.19,0,0,0,.37-.06c1.4-.5,1.18-5.53,0-5.94a1,1,0,0,0-.35-.06h-10.7a1,1,0,0,1-1-1V14.14a1,1,0,0,1,.07-.38c.67-1.7,1.84-5,3.85-7.43,2.59-3.06,5.43-3.79,7.28-4.72a1,1,0,0,1,.46-.11h27.56c.79,0-3.11,5-3.11,5a1.07,1.07,0,0,1-.93.54l-14.9-.22a1.17,1.17,0,0,0-.49.11c-1.43.7-2.08,2.81-2.13,4.25a6.39,6.39,0,0,0,.12,1.53l11,0a1,1,0,0,1,1,1.13c-.14,1.5-.27,3-.4,4.51a1,1,0,0,1-.1.37,24.23,24.23,0,0,1-3,4.64c-3,3.56-4.36,5.51-6.59,6.54l-.12,0a1,1,0,0,1-.31.05l-28.83-.09"/></g></g></svg>