<svg xmlns="http://www.w3.org/2000/svg" viewBox="0 0 377.22 99.14"><defs><style>.cls-1{fill:#FFFFFF;}.cls-2{fill:#FFFFFF;}.cls-3{fill:#000000;}</style></defs><title>Gruppe</title><g id="Layer_2" data-name="Layer 2"><g id="Layer_2-2" data-name="Layer 2"><path class="cls-1" d="M42,16c2,0,9-4,9-10s-5-5-5-5H4l9,6L0,29v1H34c13-6,8-12,8-12S40,16,42,16ZM25.5,23.5h-7l3-6h7C30.5,22.5,25.5,23.5,25.5,23.5Zm5-10h-7l3-6h7C35.5,12.5,30.5,13.5,30.5,13.5Z"/><path class="cls-1" d="M92.5,0h-31l-18,28v2h16l6-10s4-2,5,1l-4.07,9H81.5l4-8c1-2-1-5-1-5,9,0,11-12,11-12C96.5,1,92.5,0,92.5,0Zm-17,13h-7l3-6h7C80.5,12,75.5,13,75.5,13Z"/><path class="cls-1" d="M102.5,0l8,5V7l-26,23h12l4.5-4.5h13.5V30h13l1-5,6-25Zm14,20h-8l8-8.92h1.92Z"/><path class="cls-1" d="M142.5,0l8,5V7l-26,23h12l4.5-4.5h13.5V30h13l1-5,6-25Zm14,20h-8l8-8.92h1.92Z"/><polygon class="cls-1" points="129.91 28.44 128.46 28.44 128.15 30 129.91 28.44"/><polygon class="cls-1" points="175.54 30 189.5 30 203.61 7.48 212.91 7.48 216.94 0.96 181.61 0.96 178.57 7.18 189 7.41 175.54 30"/><path class="cls-1" d="M243.24,1H258.8L241.17,30H225.61l7-12.16-6.53,0L218.35,30H203.17L221.09,1h14.74C233.22,5,231.61,8.11,229,12.18l7,0"/><path class="cls-1" d="M276.06,7.93H292.2L296,1H264.65L246.57,30H278.2l4.3-6.89H266.39l3.15-5.18h16L288.65,13H273.31"/><polygon class="cls-1" points="285.09 30 302.43 0.96 316.5 0.96 318.87 16 320.57 16 329.98 0.96 339.61 0.96 321.83 30 307.31 30 305.02 14.96 302.87 14.96 294.2 30 285.09 30"/><path class="cls-1" d="M138.87,99.14h15.26l5.26-9h16.07l3.63-6H162.94q2.19-3.76,4.37-7.55l16.08.07,4.11-6.44h-31Z"/><path class="cls-1" d="M43.39,97.59l2.81-4.93a1,1,0,0,1,.9-.52H63.31a1.15,1.15,0,0,0,.37-.06,3.2,3.2,0,0,0,2.15-3.27,3.16,3.16,0,0,0-2.16-2.67,1,1,0,0,0-.35,0h-9.7a1,1,0,0,1-1-1V82.29a1.17,1.17,0,0,1,.07-.38A23,23,0,0,1,63.79,69.75a1,1,0,0,1,.46-.11h26a1,1,0,0,1,.91,1.54l-2.47,4.5a1.07,1.07,0,0,1-.92.54L71.86,76a1,1,0,0,0-.48.1c-2,1-2.73,3-2.14,4.25a3.19,3.19,0,0,0,2.37,1.5H80.4a1,1,0,0,1,1,1.13L81,87.5a1.21,1.21,0,0,1-.11.37,23.38,23.38,0,0,1-3,4.64,24.4,24.4,0,0,1-8.6,6.54,1,1,0,0,1-.43.09H44.29A1,1,0,0,1,43.39,97.59Z"/><path class="cls-1" d="M331.51,24.52a1,1,0,0,1,.9-.52h17.21a1.19,1.19,0,0,0,.37-.06c1.4-.5,1.18-5.53,0-5.94a1,1,0,0,0-.35-.06h-10.7a1,1,0,0,1-1-1V14.14a1,1,0,0,1,.07-.38c.67-1.7,1.84-5,3.85-7.43,2.59-3.06,5.43-3.79,7.28-4.72a1,1,0,0,1,.46-.11h27.56c.79,0-3.11,5-3.11,5a1.07,1.07,0,0,1-.93.54l-14.9-.22a1.17,1.17,0,0,0-.49.11c-1.43.7-2.08,2.81-2.13,4.25a6.39,6.39,0,0,0,.12,1.53l11,0a1,1,0,0,1,1,1.13c-.14,1.5-.27,3-.4,4.51a1,1,0,0,1-.1.37,24.23,24.23,0,0,1-3,4.64c-3,3.56-4.36,5.51-6.59,6.54l-.12,0a1,1,0,0,1-.31.05l-28.83-.09"/><path class="cls-1" d="M103.83,69.14l8,5v2l-26,23h12l4.5-4.5h13.5v4.5h13l1-5,6-25Zm14,20h-8l8-8.92h1.93Z"/><ellipse class="cls-1" cx="91.03" cy="84.1" rx="2.82" ry="1.83" transform="translate(-23.27 132.02) rotate(-65.48)"/><ellipse class="cls-1" cx="140.03" cy="84.1" rx="2.82" ry="1.83" transform="translate(5.4 176.6) rotate(-65.48)"/><ellipse class="cls-1" cx="186.03" cy="84.1" rx="2.82" ry="1.83" transform="translate(32.31 218.45) rotate(-65.48)"/><polygon class="cls-2" points="244.17 99.11 318.72 99.11 350.06 47.52 276.06 47.52 244.17 99.11"/><path class="cls-3" d="M264,99.1,276.5,79.74H256.14l8-13,20.85-.1q5.67-9.59,11.33-19.16h13.5L298.44,66.79h39.84l-7.85,13H290.06L278.28,99.1Z"/><polygon class="cls-1" points="267.89 99.11 282.22 75.96 258.47 75.96 262.13 70.04 286.06 70.04 299.39 47.52 306.28 47.52 293.17 70.02 336.38 70.02 332.5 76.42 288.72 76.42 274.5 99.11 267.89 99.11"/><path class="cls-1" d="M215.51,77.07h16.15l3.77-7H204.1L186,99.14h31.63L222,92.25H205.84L209,87.07h16l3.11-4.89H212.77"/></g></g></svg>